<svg width="24" height="24" viewBox="0 0 24 24" fill="none" xmlns="http://www.w3.org/2000/svg">
<path d="M11.5 12.2422C14.5376 12.2422 17 9.77975 17 6.74219C17 3.70462 14.5376 1.24219 11.5 1.24219C8.46243 1.24219 6 3.70462 6 6.74219C6 9.77975 8.46243 12.2422 11.5 12.2422Z" fill="#CE0D0D"/>
<path fill-rule="evenodd" clip-rule="evenodd" d="M20.1519 13.7859L13.7879 20.1499C13.6473 20.2905 13.5684 20.4811 13.5684 20.6799C13.5684 20.8787 13.6473 21.0694 13.7879 21.2099C13.9285 21.3505 14.1191 21.4295 14.3179 21.4295C14.5167 21.4295 14.7073 21.3505 14.8479 21.2099L21.2119 14.8459C21.3525 14.7054 21.4314 14.5147 21.4314 14.3159C21.4314 14.1172 21.3525 13.9265 21.2119 13.7859C21.0713 13.6454 20.8807 13.5664 20.6819 13.5664C20.4831 13.5664 20.2925 13.6454 20.1519 13.7859Z" fill="#CE0D0D"/>
<path fill-rule="evenodd" clip-rule="evenodd" d="M17.5 12.25C14.602 12.25 12.25 14.602 12.25 17.5C12.25 20.398 14.602 22.75 17.5 22.75C20.398 22.75 22.75 20.398 22.75 17.5C22.75 14.602 20.398 12.25 17.5 12.25ZM17.5 13.75C19.57 13.75 21.25 15.43 21.25 17.5C21.25 19.57 19.57 21.25 17.5 21.25C15.43 21.25 13.75 19.57 13.75 17.5C13.75 15.43 15.43 13.75 17.5 13.75Z" fill="#CE0D0D"/>
<path fill-rule="evenodd" clip-rule="evenodd" d="M12.925 21.7555C11.8469 20.6007 11.2482 19.0793 11.25 17.4995C11.25 15.8165 11.917 14.2875 13.001 13.1635C12.511 13.1255 12.01 13.1055 11.5 13.1055C8.178 13.1055 5.237 13.9365 3.411 15.1815C2.018 16.1315 1.25 17.3385 1.25 18.6055V20.0555C1.24961 20.2788 1.29331 20.5001 1.3786 20.7065C1.4639 20.9129 1.5891 21.1005 1.74704 21.2584C1.90498 21.4164 2.09254 21.5416 2.29897 21.6269C2.50541 21.7122 2.72664 21.7559 2.95 21.7555H12.925Z" fill="#CE0D0D"/>
</svg>
