<svg width="20" height="24" viewBox="0 0 20 24" fill="none" xmlns="http://www.w3.org/2000/svg">
<path d="M3.0752 0.5H17C17.8586 0.5 18.5546 1.2097 18.5547 2.03711V22.6367C18.5547 23.0134 18.4492 23.2255 18.3486 23.3369C18.2487 23.4473 18.1175 23.5 17.9756 23.5C17.8304 23.5 17.6514 23.4447 17.4326 23.2803L17.3369 23.2031L17.3359 23.2021L11.127 17.9141C10.8312 17.6618 10.4355 17.5361 10.0469 17.5361C9.65875 17.5361 9.26233 17.6612 8.9668 17.9131L2.7373 23.2031L2.73633 23.2041C2.51479 23.3933 2.30781 23.4778 2.14258 23.4961L2.07422 23.5H2.07227C2.00654 23.5003 1.9411 23.4887 1.87988 23.4658L1.81934 23.4385C1.76089 23.408 1.70862 23.3673 1.66504 23.3184L1.625 23.2676L1.62402 23.2666C1.52041 23.1178 1.44531 22.9108 1.44531 22.6367V2.03711L1.4541 1.8877C1.53936 1.14424 2.24797 0.500002 3.0752 0.5Z" fill="#FEFEFE" stroke="url(#paint0_linear_1426_8666)"/>
<defs>
<linearGradient id="paint0_linear_1426_8666" x1="0.945313" y1="0" x2="19.561" y2="0.272924" gradientUnits="userSpaceOnUse">
<stop stop-color="#B78AF7"/>
<stop offset="1" stop-color="#612AC3"/>
</linearGradient>
</defs>
</svg>
