<svg width="24" height="24" viewBox="0 0 24 24" fill="none" xmlns="http://www.w3.org/2000/svg">
<g clip-path="url(#clip0_1076_27013)">
<path d="M11.5 12.2422C14.5376 12.2422 17 9.77975 17 6.74219C17 3.70462 14.5376 1.24219 11.5 1.24219C8.46243 1.24219 6 3.70462 6 6.74219C6 9.77975 8.46243 12.2422 11.5 12.2422Z" fill="#CE0D0D"/>
<path d="M11.7568 12.9297C11.9919 12.9297 12.2251 12.9342 12.4561 12.9424C12.5201 12.9447 12.5838 12.9492 12.6475 12.9521C12.8213 12.96 12.9939 12.9691 13.165 12.9814C13.1953 12.9837 13.2257 12.985 13.2559 12.9873L13.2539 12.9883C15.9536 13.1956 18.2994 13.9516 19.8457 15.0059C21.2387 15.9559 22.0068 17.1627 22.0068 18.4297V19.8799C22.0072 20.1031 21.9631 20.324 21.8779 20.5303C21.7926 20.7367 21.6677 20.9251 21.5098 21.083C21.3519 21.2408 21.1643 21.3659 20.958 21.4512C20.7516 21.5365 20.53 21.5805 20.3066 21.5801H3.20508C2.98172 21.5805 2.76015 21.5365 2.55371 21.4512C2.3474 21.3659 2.15983 21.2408 2.00196 21.083C1.84402 20.9251 1.71908 20.7367 1.63379 20.5303C1.5486 20.324 1.50452 20.1031 1.50489 19.8799V18.4297C1.50489 17.1627 2.27302 15.9559 3.66602 15.0059C5.21211 13.9517 7.55757 13.1957 10.2568 12.9883L10.2559 12.9873C10.2857 12.985 10.3157 12.9836 10.3457 12.9814C10.5169 12.9691 10.6894 12.96 10.8633 12.9521C10.927 12.9492 10.9907 12.9447 11.0547 12.9424C11.286 12.9342 11.5195 12.9297 11.7549 12.9297H11.7568Z" fill="#CE0D0D"/>
<path d="M21.8652 11.6953H23.0576L23.1709 11.7012C23.4326 11.7276 23.6787 11.8436 23.8662 12.0312C24.0804 12.2458 24.2009 12.5367 24.2012 12.8398V13.4844H23.7832L23.7012 13.9844H23.5557L23.5488 14.084L23.0957 20.3076L23.0791 20.5244L23.0439 20.5518C23.0043 20.6637 22.9438 20.7678 22.8643 20.8574L22.8027 20.9199C22.6309 21.0798 22.4046 21.1677 22.1699 21.167V21.168H17.1982C16.9932 21.1673 16.7949 21.0989 16.6338 20.9746L16.5664 20.918C16.3951 20.7579 16.291 20.5386 16.2744 20.3047V20.3037L15.8486 14.082L15.8418 13.9844H15.2002V12.8398L15.2061 12.7266C15.2322 12.4647 15.3475 12.218 15.5352 12.0303L15.6191 11.9551C15.8227 11.7881 16.0791 11.6956 16.3447 11.6953H17.5371V10.9453L17.541 10.8691C17.5586 10.6911 17.6371 10.5241 17.7646 10.3965L17.8213 10.3447C17.9595 10.2313 18.1332 10.1682 18.3135 10.168H21.0889L21.165 10.1719C21.3174 10.1873 21.4617 10.2476 21.5801 10.3447L21.6377 10.3965L21.6885 10.4531C21.8017 10.5914 21.8651 10.765 21.8652 10.9453V11.6953Z" fill="#CE0D0D" stroke="#FEFEFE"/>
</g>
<defs>
<clipPath id="clip0_1076_27013">
<rect width="24" height="24" fill="white"/>
</clipPath>
</defs>
</svg>
