<svg width="32" height="32" viewBox="0 0 32 32" fill="none" xmlns="http://www.w3.org/2000/svg">
<rect width="32" height="32" rx="16" fill="#F7F0F8"/>
<path d="M17.6367 6.40039H20.3809V9.04688H18.4678C18.1125 9.04697 17.7913 9.21869 17.5684 9.41992C17.3556 9.61206 17.1476 9.91002 17.1475 10.2402V12.5049C17.1476 12.7257 17.327 12.9043 17.5479 12.9043H20.3418C20.2802 13.6031 20.2021 14.2572 20.1338 14.7637C20.0975 15.0326 20.0637 15.2595 20.0381 15.4287H17.5322C17.3116 15.4289 17.1331 15.6075 17.1328 15.8281V25.2666H13.6855V15.8281C13.6853 15.6074 13.5059 15.4287 13.2852 15.4287H11.6191V12.917H13.2852C13.5059 12.917 13.6853 12.7383 13.6855 12.5176V9.80957C13.6855 9.55914 13.6652 8.70984 14.1338 7.92383C14.5525 7.22164 15.4084 6.49724 17.2539 6.40918L17.6367 6.40039Z" stroke="#333333" stroke-width="0.8" stroke-miterlimit="1" stroke-linecap="round" stroke-linejoin="round"/>
</svg>
