<svg width="32" height="32" viewBox="0 0 32 32" fill="none" xmlns="http://www.w3.org/2000/svg">
<rect width="32" height="32" rx="16" fill="#F7F0F8"/>
<g clip-path="url(#clip0_511_34238)">
<path fill-rule="evenodd" clip-rule="evenodd" d="M25.1406 11.625C25.1406 8.99469 23.0053 6.85938 20.375 6.85938H11.625C8.99469 6.85938 6.85938 8.99469 6.85938 11.625V20.375C6.85938 23.0053 8.99469 25.1406 11.625 25.1406H20.375C23.0053 25.1406 25.1406 23.0053 25.1406 20.375V11.625ZM24.3594 11.625V20.375C24.3594 22.5741 22.5741 24.3594 20.375 24.3594H11.625C9.42594 24.3594 7.64062 22.5741 7.64062 20.375V11.625C7.64062 9.42594 9.42594 7.64062 11.625 7.64062H20.375C22.5741 7.64062 24.3594 9.42594 24.3594 11.625Z" fill="black"/>
<path fill-rule="evenodd" clip-rule="evenodd" d="M15.9861 11.4681C13.4864 11.4681 11.457 13.4975 11.457 15.9972C11.457 18.4969 13.4864 20.5263 15.9861 20.5263C18.4858 20.5263 20.5152 18.4969 20.5152 15.9972C20.5152 13.4975 18.4858 11.4681 15.9861 11.4681ZM15.9861 12.2494C18.0548 12.2494 19.7339 13.9287 19.7339 15.9972C19.7339 18.0656 18.0545 19.745 15.9861 19.745C13.9177 19.745 12.2383 18.0656 12.2383 15.9972C12.2383 13.9287 13.9177 12.2494 15.9861 12.2494ZM21.2967 9.35938C20.5655 9.35938 19.972 9.95312 19.972 10.6841C19.972 11.415 20.5658 12.0088 21.2967 12.0088C22.0277 12.0088 22.6214 11.415 22.6214 10.6841C22.6214 9.95312 22.0277 9.35938 21.2967 9.35938ZM21.2967 10.1387C21.4381 10.1435 21.5722 10.2031 21.6705 10.3048C21.7689 10.4066 21.8239 10.5426 21.8239 10.6841C21.8239 10.8256 21.7689 10.9616 21.6705 11.0633C21.5722 11.165 21.4381 11.2246 21.2967 11.2294C21.1553 11.2246 21.0213 11.165 20.9229 11.0633C20.8245 10.9616 20.7696 10.8256 20.7696 10.6841C20.7696 10.5426 20.8245 10.4066 20.9229 10.3048C21.0213 10.2031 21.1553 10.1435 21.2967 10.1387Z" fill="black"/>
</g>
<defs>
<clipPath id="clip0_511_34238">
<rect width="20" height="20" fill="white" transform="translate(6 6)"/>
</clipPath>
</defs>
</svg>
