<svg width="32" height="32" viewBox="0 0 32 32" fill="none" xmlns="http://www.w3.org/2000/svg">
<rect width="32" height="32" rx="16" fill="#F7F0F8"/>
<path fill-rule="evenodd" clip-rule="evenodd" d="M12.042 14.3327C12.042 12.1466 13.8142 10.3743 16.0003 10.3743C18.1865 10.3743 19.9587 12.1466 19.9587 14.3327C19.9587 16.5188 18.1865 18.291 16.0003 18.291C13.8142 18.291 12.042 16.5188 12.042 14.3327ZM16.0003 11.6243C14.5046 11.6243 13.292 12.8369 13.292 14.3327C13.292 15.8285 14.5046 17.041 16.0003 17.041C17.4961 17.041 18.7087 15.8285 18.7087 14.3327C18.7087 12.8369 17.4961 11.6243 16.0003 11.6243Z" fill="#333333"/>
<path fill-rule="evenodd" clip-rule="evenodd" d="M8.93732 13.3801C9.23259 9.79788 12.226 7.04102 15.8204 7.04102H16.1803C19.7746 7.04102 22.7681 9.79788 23.0634 13.3801C23.222 15.3043 22.6276 17.2151 21.4054 18.7098L17.4112 23.5946C16.682 24.4864 15.3187 24.4864 14.5895 23.5947L10.5953 18.7098C9.3731 17.2151 8.7787 15.3043 8.93732 13.3801ZM15.8204 8.29102C12.8766 8.29102 10.4249 10.5489 10.1831 13.4827C10.0511 15.0843 10.5458 16.6745 11.563 17.9186L15.5572 22.8034C15.7862 23.0835 16.2144 23.0835 16.4435 22.8034L20.4377 17.9186C21.4549 16.6745 21.9496 15.0843 21.8176 13.4827C21.5758 10.5489 19.1241 8.29102 16.1803 8.29102H15.8204Z" fill="#333333"/>
</svg>
