<svg width="20" height="20" viewBox="0 0 20 20" fill="none" xmlns="http://www.w3.org/2000/svg">
<path d="M12.7814 9.08516C11.9965 8.65144 11.1621 8.32099 10.336 7.97814C9.85686 7.77987 9.39835 7.54855 8.99355 7.22636C8.19633 6.59024 8.34917 5.55757 9.2827 5.14864C9.54706 5.03298 9.82381 4.9958 10.1047 4.97928C11.1869 4.92145 12.2155 5.11972 13.1944 5.59062C13.6818 5.82607 13.8429 5.75172 14.0082 5.24364C14.1817 4.70666 14.3262 4.16141 14.4873 3.62029C14.5947 3.2568 14.4625 3.01722 14.1197 2.86438C13.4918 2.58763 12.8475 2.38936 12.17 2.28196C11.2861 2.14565 11.2861 2.14152 11.2819 1.25343C11.2778 0.00183587 11.2778 0.00183585 10.0221 0.00183585C9.84034 0.00183585 9.65859 -0.00229481 9.47684 0.00183585C8.89028 0.0183585 8.79115 0.121625 8.77462 0.712309C8.76636 0.976672 8.77462 1.24103 8.77049 1.50953C8.76636 2.29435 8.76223 2.28196 8.01045 2.55458C6.19296 3.21549 5.06942 4.45469 4.94963 6.43741C4.84224 8.19294 5.75924 9.37844 7.20084 10.2417C8.08893 10.7746 9.07203 11.0885 10.0138 11.5057C10.3815 11.6668 10.7326 11.8527 11.0382 12.1088C11.9428 12.8565 11.7776 14.0998 10.7036 14.5707C10.1295 14.8226 9.52227 14.8846 8.89854 14.8061C7.9361 14.6863 7.01496 14.4344 6.14752 13.9841C5.63945 13.7198 5.49075 13.79 5.31726 14.3394C5.16856 14.8144 5.03638 15.2935 4.9042 15.7727C4.72658 16.4171 4.79267 16.5699 5.40814 16.8715C6.19296 17.2515 7.03149 17.4456 7.88653 17.5819C8.5557 17.6893 8.57635 17.7182 8.58461 18.4122C8.58874 18.7261 8.58874 19.0442 8.59288 19.3581C8.59701 19.7547 8.78702 19.986 9.19595 19.9942C9.65859 20.0025 10.1253 20.0025 10.588 19.9901C10.968 19.9818 11.1621 19.7753 11.1621 19.3912C11.1621 18.9616 11.1828 18.5279 11.1663 18.0983C11.1456 17.6604 11.3356 17.4374 11.757 17.3217C12.7277 17.0573 13.5538 16.5369 14.1899 15.7603C15.9578 13.6124 15.2845 10.4689 12.7814 9.08516Z" fill="url(#paint0_linear_1915_39840)"/>
<defs>
<linearGradient id="paint0_linear_1915_39840" x1="4.81836" y1="0" x2="15.4723" y2="0.10726" gradientUnits="userSpaceOnUse">
<stop stop-color="#B78AF7"/>
<stop offset="1" stop-color="#612AC3"/>
</linearGradient>
</defs>
</svg>
