<svg width="24" height="24" viewBox="0 0 24 24" fill="none" xmlns="http://www.w3.org/2000/svg">
<path d="M11.5 12.2422C14.5376 12.2422 17 9.77975 17 6.74219C17 3.70462 14.5376 1.24219 11.5 1.24219C8.46243 1.24219 6 3.70462 6 6.74219C6 9.77975 8.46243 12.2422 11.5 12.2422Z" fill="#CE0D0D"/>
<path fill-rule="evenodd" clip-rule="evenodd" d="M12.675 21.65C11.5969 20.4952 10.9982 18.9738 11 17.394C11 15.711 11.667 14.182 12.751 13.058C12.261 13.02 11.76 13 11.25 13C7.928 13 4.987 13.831 3.161 15.076C1.768 16.026 1 17.233 1 18.5V19.95C0.999607 20.1734 1.04331 20.3946 1.1286 20.601C1.2139 20.8075 1.3391 20.995 1.49704 21.153C1.65498 21.3109 1.84254 21.4361 2.04897 21.5214C2.25541 21.6067 2.47664 21.6504 2.7 21.65H12.675Z" fill="#CE0D0D"/>
<path d="M17.25 22.5C20.1495 22.5 22.5 20.1495 22.5 17.25C22.5 14.3505 20.1495 12 17.25 12C14.3505 12 12 14.3505 12 17.25C12 20.1495 14.3505 22.5 17.25 22.5Z" fill="#CE0D0D"/>
<path d="M17.2495 18.1746C17.0857 18.1746 16.9286 18.1096 16.8127 17.9937C16.6969 17.8779 16.6318 17.7208 16.6318 17.557V15.0864C16.6318 14.9226 16.6969 14.7655 16.8127 14.6497C16.9286 14.5338 17.0857 14.4688 17.2495 14.4688C17.4133 14.4688 17.5704 14.5338 17.6862 14.6497C17.8021 14.7655 17.8671 14.9226 17.8671 15.0864V17.557C17.8671 17.7208 17.8021 17.8779 17.6862 17.9937C17.5704 18.1096 17.4133 18.1746 17.2495 18.1746Z" fill="white"/>
<path d="M17.2495 20.0283C17.5906 20.0283 17.8671 19.7517 17.8671 19.4106C17.8671 19.0695 17.5906 18.793 17.2495 18.793C16.9084 18.793 16.6318 19.0695 16.6318 19.4106C16.6318 19.7517 16.9084 20.0283 17.2495 20.0283Z" fill="white"/>
</svg>
