<svg width="24" height="24" viewBox="0 0 24 24" fill="none" xmlns="http://www.w3.org/2000/svg">
<path fill-rule="evenodd" clip-rule="evenodd" d="M4.45929 0.00484655C4.43968 0.0259169 4.47644 0.254427 4.55015 0.569736C4.57724 0.685618 4.60571 0.810745 4.61341 0.847797C4.63164 0.935467 4.76376 1.36894 4.79399 1.44031C4.80686 1.47069 4.8346 1.53987 4.85564 1.59402C4.94009 1.81145 5.0509 2.05551 5.11058 2.15557C5.13329 2.19366 5.1897 2.28927 5.23591 2.36804C5.43377 2.70522 5.67135 2.98211 5.9425 3.19151C6.0818 3.29909 6.13535 3.34951 6.12654 3.36483C6.10581 3.40089 5.95068 3.45875 5.80253 3.48569C5.41984 3.55528 4.97286 3.47963 4.52999 3.27029C4.4584 3.23644 4.38247 3.20267 4.36126 3.19523C4.31136 3.17772 4.06347 3.03218 3.93282 2.94368C3.8768 2.90573 3.80614 2.86054 3.77579 2.84324C3.74543 2.82596 3.68903 2.7875 3.65044 2.75777C3.61186 2.72805 3.52605 2.66309 3.45976 2.61344C3.29408 2.48933 3.06371 2.30284 2.98249 2.22708C2.94537 2.19245 2.91178 2.1641 2.90784 2.16408C2.89996 2.16405 2.72117 2.00634 2.69806 1.97904C2.67521 1.95203 2.5538 1.8408 2.49559 1.79353C2.46642 1.76985 2.42086 1.72842 2.39435 1.70148C2.29129 1.59675 2.18309 1.50088 2.17647 1.5084C2.16794 1.51808 2.20723 1.7657 2.23528 1.87903C2.28054 2.06189 2.39152 2.38326 2.47203 2.56464C2.56504 2.77416 2.73706 3.08911 2.79667 3.15901C2.80882 3.17326 2.85777 3.23549 2.90545 3.29729C3.04857 3.48281 3.05511 3.49045 3.19977 3.64094C3.27648 3.72075 3.34273 3.79191 3.34699 3.79907C3.35125 3.80624 3.38428 3.83656 3.42036 3.86644C3.45646 3.89633 3.53483 3.96203 3.59451 4.01245C3.70596 4.10659 3.7937 4.17101 3.88154 4.22316C3.90905 4.23951 3.96264 4.2807 4.00064 4.31473L4.06973 4.37659L4.028 4.38959C3.94887 4.41422 3.8301 4.42432 3.54654 4.43056C3.15047 4.43927 2.81789 4.40784 2.4763 4.32943C2.04819 4.23116 1.69142 4.10906 1.34595 3.9426C1.2678 3.90495 1.19877 3.87414 1.19254 3.87414C1.17824 3.87414 0.788357 3.64853 0.730718 3.6069C0.707096 3.58984 0.661732 3.56082 0.629914 3.54241C0.551662 3.49713 0.473545 3.44045 0.30224 3.30465C0.222773 3.24164 0.154876 3.1901 0.151347 3.1901C0.147828 3.1901 0.122383 3.17378 0.0947985 3.15383C0.0672135 3.13388 0.0337662 3.11755 0.0204703 3.11755C-0.000751177 3.11755 -0.00293966 3.12085 0.00258505 3.1445C0.00604643 3.15933 0.0325515 3.21366 0.0614767 3.26525C0.0904115 3.31684 0.114082 3.36191 0.114082 3.3654C0.114082 3.3725 0.182471 3.4801 0.221028 3.53368C0.234777 3.55277 0.295356 3.64069 0.355646 3.72904C0.587047 4.06817 0.713575 4.22779 0.957733 4.48863C1.28817 4.84166 1.58089 5.0845 1.97493 5.33253C2.19991 5.47415 2.34082 5.54709 2.59201 5.65196C3.0209 5.83102 3.33537 5.91638 3.63888 5.93614C3.82543 5.9483 4.66783 5.9493 4.87709 5.93763C4.95399 5.93334 5.01826 5.93087 5.01993 5.93215C5.02158 5.93343 5.01156 5.95245 4.99762 5.97441C4.93045 6.08035 4.66618 6.5955 4.63687 6.67765C4.6267 6.70615 4.58377 6.81114 4.54148 6.91095C4.46625 7.08853 4.30823 7.52564 4.30823 7.55618C4.30823 7.56466 4.29498 7.61765 4.2788 7.67393C4.0117 8.60249 3.92488 9.53291 4.01491 10.502C4.05502 10.9338 4.15374 11.468 4.25974 11.8269C4.27517 11.8792 4.29664 11.9592 4.30744 12.0048C4.32655 12.0855 4.43011 12.3931 4.46971 12.4868C4.48056 12.5124 4.50112 12.5637 4.51541 12.6008C4.59778 12.8143 4.73046 13.1077 4.82241 13.2796C4.97263 13.5606 5.00968 13.6278 5.06595 13.7214C5.09892 13.7763 5.15886 13.8681 5.19916 13.9254C5.23944 13.9827 5.27248 14.0335 5.27257 14.0381C5.27282 14.051 5.37267 14.1914 5.47504 14.3227C5.52551 14.3875 5.58179 14.4614 5.60009 14.4871C5.6184 14.5127 5.66431 14.5687 5.70212 14.6114C5.73992 14.6542 5.80933 14.7335 5.85635 14.7876C5.93396 14.877 5.99633 14.9421 6.21787 15.1651C6.25797 15.2054 6.3443 15.2851 6.40974 15.3421C6.47517 15.3991 6.56386 15.4772 6.60681 15.5156C6.64977 15.554 6.6982 15.5923 6.71444 15.6007C6.73068 15.609 6.80227 15.6627 6.87353 15.7199C7.04198 15.855 7.44209 16.1125 7.67801 16.2375C8.04643 16.4328 8.40858 16.5903 8.68075 16.6736C8.73909 16.6915 8.79668 16.7105 8.80874 16.7158C8.85792 16.7376 9.22445 16.834 9.41835 16.8762C9.78035 16.9549 9.97309 16.9778 10.4259 16.9956C10.6764 17.0055 10.7787 17.0048 11.0574 16.9909C11.4902 16.9694 11.7105 16.9387 12.1132 16.8436C12.3401 16.7901 12.5393 16.7309 12.8845 16.6145C13.1573 16.5226 13.7369 16.2374 14.0174 16.057C14.0943 16.0075 14.1746 15.9576 14.1958 15.9459C14.2486 15.917 14.5409 15.705 14.603 15.6506C14.6308 15.6263 14.6575 15.6064 14.6624 15.6064C14.674 15.6064 14.8895 15.4254 14.9894 15.3317C15.032 15.2918 15.0896 15.2405 15.1174 15.2177C15.1451 15.1949 15.2116 15.1283 15.2652 15.0696C15.3187 15.0109 15.3856 14.9435 15.414 14.9199C15.4423 14.8962 15.5188 14.8113 15.584 14.7312C15.6492 14.6511 15.7164 14.5715 15.7335 14.5544C15.7723 14.5155 15.8749 14.383 15.9142 14.3212C15.9305 14.2956 15.9616 14.2536 15.9833 14.228C16.0387 14.1625 16.1948 13.9291 16.3022 13.7512C16.3521 13.6686 16.417 13.5613 16.4464 13.5128C16.5045 13.417 16.5538 13.3171 16.7456 12.907C16.8148 12.7591 16.8714 12.6299 16.8714 12.6199C16.8714 12.61 16.887 12.5637 16.906 12.5172C16.9978 12.2928 17.1275 11.8896 17.1759 11.6784C17.3155 11.0687 17.3755 10.6533 17.4022 10.1134C17.4287 9.57611 17.3699 8.85667 17.2523 8.27892C17.2332 8.18486 17.211 8.07526 17.203 8.03536C17.1576 7.80784 17.0706 7.51538 16.9534 7.19586C16.9095 7.07615 16.8703 6.96655 16.8663 6.9523C16.8524 6.90308 16.7569 6.68742 16.6735 6.51701C16.6275 6.42295 16.5786 6.32268 16.565 6.29418C16.515 6.18982 16.4312 6.04147 16.3295 5.8775C16.2723 5.78515 16.2252 5.70586 16.225 5.70131C16.2248 5.69677 16.2129 5.67617 16.1985 5.65552C16.1841 5.63489 16.1468 5.58125 16.1155 5.53634C16.0625 5.46009 15.9618 5.32212 15.8415 5.16069C15.7311 5.01254 15.4562 4.69973 15.2938 4.53745C15.1623 4.40605 15.003 4.25383 14.9816 4.23925C14.9684 4.2302 14.9445 4.20996 14.9286 4.19427C14.7992 4.06667 14.1805 3.60515 14.0589 3.54545C14.0281 3.53036 13.9813 3.5032 13.9548 3.4851C13.8707 3.42773 13.4751 3.21329 13.4142 3.1921C13.3821 3.18092 13.3366 3.16126 13.3132 3.14843C13.2033 3.08813 12.6866 2.88758 12.5519 2.85289C12.5121 2.84265 12.4145 2.81657 12.335 2.79492C11.9269 2.68387 11.5322 2.61636 11.1249 2.58794C11.0197 2.58061 10.8148 2.57826 10.5802 2.58171C10.1923 2.58744 10.0771 2.59638 9.75099 2.64612C9.59878 2.66932 9.574 2.67042 9.40388 2.66142C9.16349 2.64869 8.60561 2.63374 7.8371 2.61946L7.21521 2.60789L7.10247 2.55179C7.04047 2.52095 6.98391 2.4957 6.97679 2.4957C6.95764 2.4957 6.71849 2.34802 6.60964 2.26899C6.55765 2.23122 6.49369 2.18577 6.46754 2.16799C6.39819 2.12082 6.28373 2.02689 6.17529 1.92816C6.12303 1.88057 6.06445 1.83084 6.04513 1.81767C6.02581 1.80448 5.96849 1.75228 5.91776 1.70164C5.86704 1.651 5.77592 1.5622 5.71529 1.50432C5.52764 1.32517 5.17458 0.931114 4.98797 0.692562C4.8614 0.530746 4.66712 0.255919 4.6288 0.184489C4.56363 0.0629897 4.48385 -0.0215614 4.45929 0.00484655ZM10.9562 3.79138C11.4911 3.82153 11.9959 3.91998 12.4217 4.07718C12.7857 4.21154 12.9268 4.27423 13.1748 4.41188C13.5831 4.63848 13.5375 4.61021 13.7868 4.79137C13.8574 4.84267 13.929 4.89397 13.946 4.90538C13.9865 4.93254 14.1531 5.07258 14.3002 5.20308C14.5454 5.42059 14.9414 5.87106 15.1455 6.16462C15.1792 6.21308 15.2212 6.27022 15.2388 6.29162C15.2565 6.31301 15.2709 6.33541 15.2709 6.34139C15.2709 6.34737 15.3224 6.4348 15.3853 6.53568C15.5241 6.75829 15.5461 6.79953 15.6881 7.10359C15.8067 7.35775 15.8725 7.51563 15.9109 7.63861C15.9238 7.68012 15.9626 7.80268 15.997 7.91099C16.1016 8.23984 16.1973 8.66036 16.2245 8.91113C16.2846 9.46507 16.2962 9.9443 16.2591 10.3466C16.2512 10.4321 16.2405 10.5533 16.2352 10.616C16.2092 10.9269 16.1049 11.3613 15.9168 11.9427C15.8381 12.1859 15.6019 12.6937 15.4444 12.9581C15.2758 13.2413 15.1068 13.498 15.0587 13.5439C15.0344 13.5672 14.9431 13.6889 14.9431 13.6981C14.9431 13.7127 14.5148 14.1842 14.4513 14.2394C14.4169 14.2694 14.3581 14.3245 14.3208 14.362C14.2835 14.3994 14.214 14.4617 14.1665 14.5004C14.119 14.539 14.0519 14.5936 14.0174 14.6217C13.9136 14.7062 13.6315 14.9078 13.5602 14.9483C13.5235 14.9692 13.4519 15.0133 13.4011 15.0462C13.3017 15.1108 13.1379 15.2011 13.0292 15.2514C12.6147 15.443 12.2985 15.5634 12.0698 15.6166C11.6341 15.718 11.4789 15.7463 11.1787 15.7792C10.9852 15.8005 10.4374 15.8035 10.2524 15.7843C9.97164 15.7552 9.68762 15.7074 9.46837 15.6523C9.41368 15.6385 9.3269 15.618 9.27553 15.6066C9.14761 15.5784 8.87381 15.4795 8.64219 15.378C8.53613 15.3315 8.42115 15.2814 8.38668 15.2667C8.30298 15.2309 8.10256 15.1198 7.94626 15.0226C7.87636 14.9791 7.80261 14.9336 7.78235 14.9215C7.71557 14.8815 7.55416 14.7656 7.4659 14.6943C7.41817 14.6557 7.34586 14.5992 7.30519 14.5686C7.03762 14.3673 6.4875 13.7808 6.27245 13.4675C6.14188 13.2772 5.90876 12.9117 5.90876 12.8972C5.90876 12.8941 5.87626 12.8307 5.83654 12.7564C5.72659 12.5507 5.633 12.3555 5.58995 12.242C5.35352 11.6187 5.30676 11.4555 5.20431 10.8959C5.10126 10.333 5.07813 9.64651 5.14301 9.07696C5.17247 8.8184 5.24899 8.39376 5.30688 8.16768C5.33805 8.04594 5.4341 7.73728 5.46094 7.67261C5.46804 7.65551 5.50034 7.57156 5.53272 7.48606C5.62713 7.23679 5.68129 7.11585 5.79728 6.8953C5.85723 6.78129 5.91227 6.67548 5.91958 6.66018C5.94048 6.61637 6.09316 6.37341 6.16078 6.27633C6.19451 6.2279 6.24711 6.15115 6.27765 6.10577C6.3082 6.06039 6.36832 5.98161 6.41127 5.9307C6.4542 5.87981 6.51224 5.80784 6.54023 5.77078C6.56823 5.73373 6.61441 5.67765 6.64285 5.64616C6.75535 5.52159 7.00019 5.27216 7.03438 5.24729C7.05429 5.23281 7.09493 5.20125 7.12468 5.17718C7.15443 5.15309 7.213 5.1057 7.25484 5.07186C7.3502 4.99474 7.51251 4.85694 7.51893 4.84768C7.52158 4.84384 7.58232 4.79984 7.65391 4.74988C7.7255 4.69992 7.80577 4.64378 7.83228 4.62512C7.8588 4.60645 7.93689 4.55982 8.00583 4.5215C8.41331 4.29495 8.48042 4.2608 8.63255 4.2026C9.30739 3.9444 9.45682 3.90446 10.0396 3.82653C10.0737 3.82198 10.6243 3.77645 10.6959 3.78086C10.72 3.78086 10.7152 3.78086 10.7296 3.78086C10.7634 3.78086 10.7147 3.77776 10.9562 3.79138ZM6.75723 7.17964C6.67233 7.2075 6.5934 7.27439 6.55879 7.3478C6.47591 7.52361 6.27511 8.14247 6.2365 8.3411C6.22486 8.40096 6.21389 8.4525 6.21212 8.45563C6.21034 8.45877 6.19152 8.54272 6.17029 8.64218C5.97388 9.56244 5.94417 10.4291 6.08344 11.1757C6.1305 11.428 6.22245 11.7724 6.29652 11.9737C6.33845 12.0877 6.47841 12.389 6.52807 12.4722C6.54539 12.5012 6.57187 12.5502 6.58688 12.581C6.63069 12.6709 6.79193 12.9055 6.93169 13.0827C6.99509 13.1631 7.31276 13.4893 7.35799 13.5204C7.4012 13.5502 7.51119 13.6401 7.54303 13.6717C7.57322 13.7016 7.80417 13.8746 7.82408 13.8822C7.83389 13.886 7.8506 13.8972 7.86121 13.9072C7.89071 13.935 8.26115 14.1786 8.30973 14.202C8.3333 14.2134 8.41055 14.2545 8.48141 14.2934C8.55227 14.3322 8.64885 14.3822 8.69604 14.4045C8.74321 14.4269 8.80898 14.4587 8.84217 14.4754C8.87536 14.4921 8.94156 14.5196 8.98929 14.5365C9.03702 14.5535 9.1303 14.5866 9.19659 14.6102C9.85691 14.8446 10.5086 14.9265 11.1394 14.8541C11.5328 14.809 11.798 14.7379 12.2482 14.5569C12.3012 14.5356 12.3464 14.4971 12.386 14.4397C12.4418 14.3587 12.4588 14.2965 12.4534 14.1931C12.4479 14.0891 12.4223 14.0264 12.3545 13.9517C12.3148 13.908 12.2941 13.8944 12.2399 13.8766C12.1323 13.8412 12.0831 13.8465 11.9037 13.9129C11.5126 14.0577 11.2583 14.1117 10.855 14.1357C10.4338 14.1608 9.95526 14.0922 9.50512 13.9423C9.46005 13.9273 9.39497 13.9066 9.3605 13.8963C9.22001 13.8545 8.99862 13.75 8.65183 13.5617C8.63592 13.5531 8.60338 13.5355 8.57952 13.5226C8.52172 13.4913 8.24624 13.3038 8.04983 13.162C7.92801 13.0741 7.58135 12.7647 7.54023 12.7072C7.52586 12.6871 7.46714 12.6141 7.40974 12.545C7.26277 12.3681 7.1435 12.1734 7.01845 11.9064C6.92705 11.7112 6.90649 11.6557 6.84558 11.44C6.77251 11.1812 6.73877 11.0104 6.7022 10.7145C6.67734 10.5132 6.6775 9.87975 6.70248 9.64181C6.7379 9.30451 6.78317 9.03935 6.89357 8.52248C6.91427 8.42556 7.02455 8.06707 7.08965 7.88508C7.18988 7.60484 7.19111 7.60054 7.19111 7.52942C7.19111 7.44345 7.17279 7.38056 7.13035 7.32082C7.05659 7.21697 6.96783 7.16934 6.85087 7.17084C6.81263 7.17133 6.77049 7.17529 6.75723 7.17964ZM17.113 14.5801C17.0841 14.5849 17.0251 14.6082 16.9819 14.6317C16.8942 14.6796 17.0046 14.5643 15.8574 15.8054C14.9298 16.809 14.9718 16.7573 14.9339 16.9407C14.8659 17.2695 14.9852 17.5644 15.2419 17.7026C15.3588 17.7655 15.4485 17.7868 15.5649 17.7793C15.6634 17.773 15.7261 17.7551 15.8301 17.7038C15.9015 17.6685 15.9137 17.6558 16.8114 16.6864C17.3114 16.1466 17.7392 15.6792 17.7621 15.6479C17.8155 15.5749 17.8321 15.5395 17.8599 15.4397C17.903 15.285 17.9006 15.1521 17.8518 14.9964C17.809 14.8597 17.7363 14.7596 17.6185 14.6748C17.5047 14.593 17.4584 14.5784 17.3005 14.5745C17.2262 14.5727 17.1418 14.5752 17.113 14.5801ZM18.2405 16.722C18.1615 16.7382 18.0238 16.7829 17.9657 16.8112C17.8526 16.8662 17.6989 16.9864 17.6086 17.0904C17.5414 17.1678 17.4337 17.3618 17.398 17.4695C17.2948 17.7811 17.3183 18.1266 17.4611 18.3995C17.488 18.4508 17.5192 18.5115 17.5305 18.5342C17.5419 18.557 17.6186 18.6479 17.7011 18.7363C17.7835 18.8247 17.9961 19.0577 18.1735 19.254C18.6301 19.7595 18.8031 19.9502 18.9685 20.1303C19.048 20.2169 19.181 20.3619 19.264 20.4526C19.452 20.658 20.1419 21.4205 20.3038 21.6019C20.3701 21.6761 20.4721 21.7882 20.5304 21.851C20.6549 21.985 21.035 22.403 21.5952 23.022C22.2911 23.791 22.3297 23.8283 22.5166 23.9118C22.659 23.9753 22.7389 23.9933 22.904 23.9987C23.1153 24.0056 23.2035 23.9874 23.4047 23.8952C23.5476 23.8297 23.6387 23.7519 23.7716 23.582C23.9342 23.3742 24.0002 23.1661 24 22.8613C23.9999 22.737 23.9952 22.6767 23.9792 22.5948C23.9295 22.3408 23.8407 22.1954 23.5298 21.8595C23.4551 21.7788 23.3007 21.6095 23.1867 21.4834C23.0727 21.3572 22.9098 21.1784 22.8248 21.086C22.7397 20.9936 22.5965 20.8364 22.5065 20.7367C22.0089 20.1851 21.6943 19.8377 21.5958 19.7311C21.3984 19.5175 20.9559 19.0303 20.4146 18.4306C20.2397 18.2368 20.0743 18.0549 20.0472 18.0264C20.02 17.9979 19.8096 17.7671 19.5796 17.5136C19.3495 17.26 19.1391 17.0309 19.1119 17.0044C18.9991 16.8945 18.8216 16.7908 18.675 16.7492C18.5976 16.7271 18.5573 16.7225 18.4237 16.72C18.3362 16.7184 18.2538 16.7193 18.2405 16.722Z" fill="#FEFEFE"/>
</svg>
