<svg width="20" height="20" viewBox="0 0 20 20" fill="none" xmlns="http://www.w3.org/2000/svg">
<path fill-rule="evenodd" clip-rule="evenodd" d="M3.71607 0.503837C3.69973 0.520518 3.73037 0.701421 3.79179 0.951041C3.81436 1.04278 3.83809 1.14184 3.84451 1.17117C3.8597 1.24058 3.9698 1.58374 3.99499 1.64024C4.00572 1.6643 4.02884 1.71906 4.04637 1.76193C4.11674 1.93406 4.20908 2.12728 4.25881 2.20649C4.27774 2.23665 4.32475 2.31234 4.36326 2.3747C4.52814 2.64164 4.72612 2.86084 4.95209 3.02661C5.06817 3.11178 5.11279 3.1517 5.10545 3.16383C5.08817 3.19237 4.9589 3.23818 4.83544 3.2595C4.51653 3.3146 4.14405 3.2547 3.77499 3.08898C3.71533 3.06218 3.65206 3.03545 3.63438 3.02956C3.5928 3.01569 3.38622 2.90048 3.27735 2.83042C3.23067 2.80037 3.17178 2.7646 3.14649 2.7509C3.1212 2.73722 3.07419 2.70677 3.04204 2.68324C3.00988 2.6597 2.93837 2.60828 2.88313 2.56897C2.74506 2.47072 2.55309 2.32308 2.48541 2.26311C2.45448 2.23569 2.42649 2.21325 2.4232 2.21323C2.41663 2.21321 2.26764 2.08835 2.24839 2.06674C2.22934 2.04536 2.12817 1.9573 2.07966 1.91988C2.05535 1.90113 2.01739 1.86833 1.99529 1.84701C1.90941 1.7641 1.81924 1.68819 1.81372 1.69415C1.80662 1.70181 1.83936 1.89785 1.86273 1.98757C1.90045 2.13233 1.99293 2.38675 2.06003 2.53034C2.13753 2.69621 2.28089 2.94555 2.33056 3.00088C2.34068 3.01216 2.38147 3.06143 2.42121 3.11035C2.54047 3.25722 2.54592 3.26327 2.66648 3.38241C2.7304 3.44559 2.78561 3.50193 2.78916 3.5076C2.79271 3.51328 2.82023 3.53728 2.8503 3.56093C2.88039 3.58459 2.94569 3.6366 2.99543 3.67652C3.0883 3.75105 3.16142 3.80205 3.23461 3.84334C3.25754 3.85628 3.3022 3.88889 3.33387 3.91583L3.39144 3.9648L3.35666 3.97509C3.29072 3.99459 3.19175 4.00259 2.95545 4.00753C2.62539 4.01442 2.34824 3.98954 2.06359 3.92746C1.70683 3.84967 1.40952 3.75301 1.12162 3.62123C1.0565 3.59142 0.998972 3.56703 0.993782 3.56703C0.981866 3.56703 0.656964 3.38842 0.608932 3.35546C0.589247 3.34196 0.551443 3.31898 0.524929 3.30441C0.459718 3.26856 0.394621 3.22369 0.251867 3.11618C0.185644 3.0663 0.129063 3.0255 0.126123 3.0255C0.12319 3.0255 0.101986 3.01258 0.0789987 2.99678C0.0560112 2.98099 0.0281385 2.96806 0.0170585 2.96806C-0.000625981 2.96806 -0.00244972 2.97067 0.00215421 2.9894C0.00503869 3.00114 0.0271263 3.04415 0.0512306 3.08499C0.0753429 3.12583 0.0950683 3.16151 0.0950683 3.16428C0.0950683 3.1699 0.152059 3.25508 0.18419 3.29749C0.195648 3.31261 0.24613 3.38221 0.296371 3.45216C0.489206 3.72063 0.594646 3.847 0.798111 4.0535C1.07348 4.33298 1.31741 4.52523 1.64578 4.72159C1.83325 4.8337 1.95068 4.89145 2.16 4.97447C2.51741 5.11623 2.77948 5.1838 3.0324 5.19945C3.18786 5.20907 3.88986 5.20986 4.06424 5.20062C4.12832 5.19723 4.18188 5.19527 4.18327 5.19629C4.18465 5.1973 4.1763 5.21235 4.16469 5.22974C4.10871 5.31361 3.88848 5.72144 3.86406 5.78647C3.85558 5.80904 3.81981 5.89215 3.78457 5.97117C3.72188 6.11175 3.59019 6.4578 3.59019 6.48198C3.59019 6.48869 3.57915 6.53064 3.56566 6.57519C3.34308 7.3103 3.27073 8.04689 3.34576 8.81411C3.37918 9.15589 3.46145 9.57881 3.54979 9.86298C3.56264 9.90435 3.58054 9.96773 3.58953 10.0038C3.60546 10.0677 3.69176 10.3112 3.72476 10.3854C3.7338 10.4057 3.75094 10.4463 3.76284 10.4756C3.83149 10.6447 3.94205 10.8769 4.01867 11.013C4.14386 11.2355 4.17473 11.2887 4.22162 11.3628C4.2491 11.4062 4.29905 11.4789 4.33263 11.5243C4.3662 11.5697 4.39373 11.6098 4.39381 11.6135C4.39402 11.6237 4.47722 11.7348 4.56254 11.8388C4.60459 11.8901 4.65149 11.9486 4.66674 11.9689C4.682 11.9892 4.72026 12.0335 4.75176 12.0674C4.78327 12.1012 4.84111 12.164 4.8803 12.2069C4.94497 12.2776 4.99695 12.3292 5.18156 12.5057C5.21498 12.5376 5.28692 12.6007 5.34145 12.6458C5.39598 12.691 5.46988 12.7528 5.50567 12.7832C5.54148 12.8136 5.58184 12.8439 5.59537 12.8505C5.6089 12.8572 5.66856 12.8996 5.72794 12.9449C5.86832 13.0519 6.20174 13.2557 6.39835 13.3547C6.70536 13.5093 7.00715 13.634 7.23396 13.6999C7.28257 13.7141 7.33056 13.7291 7.34062 13.7333C7.3816 13.7506 7.68704 13.8269 7.84862 13.8603C8.1503 13.9226 8.31091 13.9407 8.68826 13.9549C8.89699 13.9627 8.98223 13.9621 9.21453 13.9511C9.57517 13.9341 9.75873 13.9098 10.0943 13.8345C10.2834 13.7921 10.4494 13.7453 10.7371 13.6532C10.9644 13.5804 11.4474 13.3546 11.6812 13.2118C11.7453 13.1726 11.8122 13.1331 11.8299 13.1239C11.8739 13.1009 12.1174 12.9332 12.1692 12.8901C12.1923 12.8708 12.2146 12.8551 12.2187 12.8551C12.2283 12.8551 12.4079 12.7118 12.4912 12.6376C12.5267 12.606 12.5747 12.5654 12.5978 12.5474C12.6209 12.5293 12.6764 12.4765 12.721 12.4301C12.7656 12.3836 12.8214 12.3303 12.845 12.3116C12.8686 12.2929 12.9324 12.2256 12.9867 12.1622C13.041 12.0988 13.097 12.0358 13.1112 12.0223C13.1436 11.9914 13.2291 11.8866 13.2618 11.8376C13.2754 11.8173 13.3013 11.7841 13.3194 11.7638C13.3656 11.712 13.4957 11.5272 13.5852 11.3864C13.6268 11.3209 13.6808 11.236 13.7053 11.1977C13.7537 11.1218 13.7949 11.0427 13.9547 10.7181C14.0123 10.601 14.0595 10.4987 14.0595 10.4908C14.0595 10.4829 14.0725 10.4463 14.0883 10.4095C14.1648 10.2318 14.2729 9.91262 14.3132 9.74538C14.4296 9.26269 14.4796 8.93387 14.5018 8.50642C14.5239 8.08109 14.4749 7.51153 14.3769 7.05414C14.361 6.97968 14.3425 6.89292 14.3358 6.86133C14.298 6.68121 14.2255 6.44967 14.1279 6.19672C14.0913 6.10196 14.0586 6.01519 14.0552 6.00391C14.0437 5.96494 13.9641 5.79421 13.8946 5.6593C13.8562 5.58484 13.8155 5.50545 13.8041 5.48289C13.7625 5.40027 13.6927 5.28283 13.6079 5.15302C13.5602 5.07991 13.521 5.01714 13.5208 5.01354C13.5207 5.00995 13.5107 4.99364 13.4987 4.97729C13.4868 4.96095 13.4557 4.91849 13.4296 4.88293C13.3854 4.82257 13.3015 4.71334 13.2013 4.58554C13.1092 4.46826 12.8802 4.22062 12.7448 4.09215C12.6353 3.98812 12.5025 3.86762 12.4847 3.85607C12.4736 3.84891 12.4538 3.83288 12.4405 3.82046C12.3327 3.71945 11.8171 3.35407 11.7157 3.30681C11.6901 3.29487 11.6511 3.27337 11.629 3.25904C11.5589 3.21362 11.2293 3.04385 11.1785 3.02708C11.1517 3.01823 11.1138 3.00266 11.0943 2.99251C11.0027 2.94477 10.5722 2.786 10.4599 2.75854C10.4268 2.75043 10.3454 2.72978 10.2791 2.71264C9.93912 2.62473 9.6102 2.57129 9.27078 2.54879C9.18306 2.54298 9.0123 2.54112 8.81681 2.54386C8.49359 2.54839 8.39761 2.55547 8.12582 2.59484C7.99898 2.61321 7.97833 2.61408 7.83657 2.60695C7.63624 2.59688 7.17134 2.58505 6.53092 2.57374L6.01268 2.56458L5.91873 2.52017C5.86705 2.49575 5.81992 2.47576 5.81399 2.47576C5.79804 2.47576 5.59874 2.35885 5.50804 2.29628C5.4647 2.26638 5.41141 2.2304 5.38962 2.21632C5.33183 2.17898 5.23644 2.10462 5.14608 2.02646C5.10252 1.98878 5.05371 1.94941 5.03761 1.93899C5.02151 1.92855 4.97374 1.88722 4.93147 1.84713C4.8892 1.80704 4.81327 1.73674 4.76274 1.69092C4.60637 1.54909 4.31215 1.23713 4.15664 1.04828C4.05116 0.920174 3.88926 0.702603 3.85733 0.646054C3.80303 0.549867 3.73654 0.482931 3.71607 0.503837ZM9.13017 3.50151C9.57589 3.52538 9.99656 3.60332 10.3515 3.72777C10.6548 3.83414 10.7723 3.88376 10.979 3.99274C11.3193 4.17213 11.2813 4.14975 11.489 4.29317C11.5478 4.33378 11.6075 4.3744 11.6217 4.38342C11.6554 4.40493 11.7943 4.51579 11.9169 4.6191C12.1212 4.7913 12.4512 5.14792 12.6213 5.38033C12.6494 5.41869 12.6843 5.46393 12.699 5.48086C12.7137 5.4978 12.7257 5.51553 12.7257 5.52026C12.7257 5.525 12.7686 5.59421 12.821 5.67408C12.9367 5.85032 12.9551 5.88296 13.0734 6.12367C13.1723 6.32488 13.2271 6.44987 13.2591 6.54723C13.2699 6.58009 13.3022 6.67712 13.3309 6.76287C13.418 7.02321 13.4977 7.35612 13.5204 7.55465C13.5705 7.99318 13.5802 8.37257 13.5492 8.69104C13.5427 8.75873 13.5337 8.85473 13.5293 8.90437C13.5076 9.15046 13.4208 9.49433 13.264 9.9546C13.1984 10.1472 13.0015 10.5492 12.8703 10.7585C12.7298 10.9827 12.589 11.1859 12.5489 11.2223C12.5286 11.2407 12.4525 11.337 12.4525 11.3443C12.4525 11.3559 12.0957 11.7291 12.0428 11.7729C12.014 11.7966 11.9651 11.8403 11.934 11.8699C11.9029 11.8995 11.845 11.9488 11.8054 11.9795C11.7658 12.0101 11.7099 12.0533 11.6812 12.0755C11.5946 12.1424 11.3596 12.302 11.3002 12.3341C11.2696 12.3506 11.2099 12.3855 11.1676 12.4116C11.0847 12.4627 10.9482 12.5342 10.8576 12.574C10.5123 12.7257 10.2488 12.821 10.0582 12.8631C9.69509 12.9434 9.56579 12.9658 9.3156 12.9919C9.1543 13.0087 8.69783 13.0111 8.54363 12.9959C8.3097 12.9729 8.07302 12.935 7.89031 12.8914C7.84473 12.8805 7.77242 12.8642 7.72961 12.8552C7.623 12.8329 7.39484 12.7546 7.20182 12.6743C7.11344 12.6375 7.01763 12.5978 6.9889 12.5861C6.91915 12.5578 6.75213 12.4698 6.62188 12.3929C6.56364 12.3585 6.50217 12.3225 6.48529 12.3128C6.42964 12.2812 6.29513 12.1894 6.22158 12.133C6.18181 12.1024 6.12155 12.0577 6.08766 12.0335C5.86468 11.8742 5.40625 11.4098 5.22704 11.1617C5.11824 11.0111 4.92396 10.7218 4.92396 10.7103C4.92396 10.7078 4.89688 10.6577 4.86378 10.5988C4.77216 10.436 4.69416 10.2814 4.65829 10.1916C4.46127 9.69812 4.4223 9.56892 4.33693 9.1259C4.25105 8.68029 4.23178 8.13682 4.28584 7.68593C4.31039 7.48124 4.37416 7.14506 4.4224 6.96608C4.44838 6.8697 4.52841 6.62535 4.55078 6.57415C4.5567 6.56061 4.58361 6.49415 4.6106 6.42646C4.68928 6.22912 4.73441 6.13338 4.83107 5.95878C4.88103 5.86852 4.92689 5.78476 4.93298 5.77264C4.9504 5.73796 5.07763 5.54562 5.13399 5.46876C5.16209 5.43042 5.20592 5.36966 5.23138 5.33373C5.25683 5.29781 5.30693 5.23544 5.34272 5.19514C5.3785 5.15485 5.42687 5.09787 5.45019 5.06854C5.47353 5.03921 5.51201 4.99481 5.53571 4.96988C5.62946 4.87126 5.83349 4.6738 5.86198 4.6541C5.87858 4.64264 5.91244 4.61766 5.93723 4.5986C5.96203 4.57953 6.01084 4.54202 6.0457 4.51523C6.12516 4.45417 6.26043 4.34508 6.26577 4.33774C6.26798 4.33471 6.3186 4.29987 6.37826 4.26032C6.43792 4.22077 6.50481 4.17633 6.5269 4.16155C6.549 4.14677 6.61408 4.10986 6.67153 4.07952C7.01109 3.90017 7.06702 3.87313 7.19379 3.82706C7.75616 3.62265 7.88068 3.59103 8.36637 3.52933C8.39472 3.52573 8.85356 3.48969 8.91323 3.49318C8.93332 3.49318 8.9293 3.49318 8.94135 3.49318C8.96947 3.49318 8.92891 3.49073 9.13017 3.50151ZM5.63102 6.18388C5.56028 6.20594 5.4945 6.25889 5.46566 6.31701C5.39659 6.45619 5.22926 6.94612 5.19708 7.10337C5.18738 7.15076 5.17824 7.19156 5.17676 7.19404C5.17528 7.19652 5.1596 7.26299 5.14191 7.34173C4.97823 8.07026 4.95348 8.7564 5.06953 9.34743C5.10875 9.54714 5.18538 9.81978 5.2471 9.97922C5.28204 10.0695 5.39868 10.308 5.44005 10.3738C5.45449 10.3968 5.47656 10.4355 5.48907 10.46C5.52558 10.5311 5.65994 10.7169 5.77641 10.8572C5.82924 10.9208 6.09396 11.179 6.13166 11.2037C6.16767 11.2273 6.25933 11.2984 6.28586 11.3234C6.31102 11.3471 6.50347 11.4841 6.52006 11.4901C6.52824 11.4931 6.54217 11.502 6.55101 11.5099C6.57559 11.5319 6.88429 11.7247 6.92478 11.7433C6.94441 11.7523 7.00879 11.7848 7.06784 11.8156C7.12689 11.8463 7.20737 11.8859 7.2467 11.9036C7.28601 11.9213 7.34082 11.9465 7.36847 11.9597C7.39614 11.9729 7.4513 11.9947 7.49107 12.0081C7.53085 12.0215 7.60858 12.0478 7.66382 12.0664C8.21409 12.252 8.75715 12.3168 9.28283 12.2595C9.61066 12.2238 9.83168 12.1675 10.2068 12.0242C10.251 12.0073 10.2887 11.9769 10.3217 11.9314C10.3682 11.8673 10.3823 11.8181 10.3778 11.7362C10.3733 11.6538 10.3519 11.6043 10.2954 11.5451C10.2623 11.5105 10.2451 11.4997 10.2 11.4856C10.1102 11.4576 10.0692 11.4618 9.91974 11.5144C9.59381 11.629 9.38195 11.6718 9.0458 11.6908C8.69487 11.7106 8.29605 11.6563 7.92093 11.5376C7.88337 11.5257 7.82914 11.5094 7.80041 11.5013C7.68334 11.4682 7.49885 11.3854 7.20986 11.2364C7.1966 11.2295 7.16948 11.2156 7.1496 11.2054C7.10144 11.1806 6.87187 11.0322 6.70819 10.9199C6.60667 10.8503 6.31779 10.6054 6.28353 10.5599C6.27155 10.544 6.22262 10.4862 6.17479 10.4315C6.0523 10.2914 5.95291 10.1373 5.84871 9.92589C5.77254 9.77135 5.75541 9.72744 5.70465 9.55666C5.64376 9.35181 5.61564 9.21661 5.58517 8.98231C5.56445 8.82298 5.56459 8.32147 5.5854 8.1331C5.61492 7.86608 5.65264 7.65615 5.74464 7.24696C5.7619 7.17024 5.85379 6.88643 5.90804 6.74235C5.99157 6.5205 5.99259 6.51709 5.99259 6.46079C5.99259 6.39273 5.97732 6.34294 5.94196 6.29565C5.88049 6.21344 5.80653 6.17573 5.70906 6.17692C5.67719 6.1773 5.64207 6.18044 5.63102 6.18388ZM14.2608 12.0426C14.2368 12.0464 14.1876 12.0648 14.1516 12.0835C14.0785 12.1213 14.1705 12.0301 13.2145 13.0126C12.4415 13.8071 12.4765 13.7662 12.4449 13.9114C12.3883 14.1717 12.4876 14.4051 12.7016 14.5146C12.799 14.5644 12.8738 14.5813 12.9708 14.5753C13.0528 14.5703 13.1051 14.5561 13.1917 14.5155C13.2513 14.4876 13.2614 14.4775 14.0095 13.7101C14.4262 13.2827 14.7827 12.9127 14.8018 12.8879C14.8463 12.8301 14.8601 12.8021 14.8833 12.7231C14.9192 12.6006 14.9171 12.4954 14.8765 12.3722C14.8408 12.2639 14.7803 12.1847 14.6821 12.1176C14.5872 12.0528 14.5487 12.0413 14.417 12.0382C14.3552 12.0367 14.2849 12.0387 14.2608 12.0426ZM15.2004 13.7382C15.1346 13.7511 15.0199 13.7865 14.9714 13.8089C14.8771 13.8524 14.7491 13.9475 14.6739 14.0299C14.6179 14.0912 14.5281 14.2447 14.4983 14.33C14.4123 14.5767 14.4319 14.8503 14.5509 15.0663C14.5733 15.1069 14.5993 15.1549 14.6088 15.1729C14.6182 15.1909 14.6822 15.2629 14.7509 15.3329C14.8196 15.4029 14.9968 15.5873 15.1446 15.7428C15.5251 16.143 15.6693 16.2939 15.8071 16.4365C15.8733 16.505 15.9842 16.6199 16.0533 16.6917C16.21 16.8543 16.7849 17.4579 16.9199 17.6015C16.9751 17.6602 17.06 17.749 17.1087 17.7987C17.2124 17.9048 17.5292 18.2357 17.996 18.7257C18.5759 19.3346 18.6081 19.3641 18.7639 19.4301C18.8825 19.4805 18.9491 19.4947 19.0867 19.499C19.2627 19.5044 19.3362 19.49 19.5039 19.417C19.623 19.3652 19.6989 19.3036 19.8097 19.1691C19.9452 19.0046 20.0001 18.8398 20 18.5985C19.9999 18.5001 19.996 18.4524 19.9827 18.3875C19.9412 18.1864 19.8672 18.0714 19.6082 17.8055C19.5459 17.7416 19.4173 17.6075 19.3223 17.5077C19.2273 17.4078 19.0915 17.2662 19.0207 17.1931C18.9498 17.12 18.8304 16.9955 18.7554 16.9165C18.3408 16.4798 18.0786 16.2048 17.9965 16.1205C17.832 15.9514 17.4632 15.5657 17.0122 15.0909C16.8664 14.9375 16.7286 14.7935 16.706 14.7709C16.6834 14.7484 16.508 14.5657 16.3163 14.3649C16.1246 14.1642 15.9492 13.9828 15.9266 13.9618C15.8326 13.8748 15.6846 13.7927 15.5625 13.7597C15.498 13.7423 15.4644 13.7386 15.3531 13.7367C15.2802 13.7354 15.2115 13.7361 15.2004 13.7382Z" fill="url(#paint0_linear_884_9120)"/>
<defs>
<linearGradient id="paint0_linear_884_9120" x1="0" y1="0.5" x2="20.555" y2="0.920404" gradientUnits="userSpaceOnUse">
<stop stop-color="#B78AF7"/>
<stop offset="1" stop-color="#612AC3"/>
</linearGradient>
</defs>
</svg>
