<svg width="32" height="32" viewBox="0 0 32 32" fill="none" xmlns="http://www.w3.org/2000/svg">
<rect width="32" height="32" rx="16" fill="#F7F0F8"/>
<g clip-path="url(#clip0_511_34247)">
<path d="M16.0002 6.38477C10.6849 6.38477 6.38477 10.6993 6.38477 16.0002C6.38477 21.2887 10.6694 25.6155 16.0002 25.6155C21.3136 25.6155 25.6155 21.3023 25.6155 16.0002C25.6155 10.7028 21.3179 6.38477 16.0002 6.38477ZM22.79 21.6698C22.0374 21.283 21.1845 20.9808 20.3556 20.7657C20.744 19.4404 20.9648 17.945 20.996 16.3848H24.8379C24.754 18.3252 24.0361 20.179 22.79 21.6698ZM9.21023 21.6698C7.96415 20.179 7.24634 18.3252 7.16234 16.3848H11.0043C11.0355 17.945 11.2563 19.4404 11.6447 20.7657C10.815 20.9813 9.97638 21.2776 9.21023 21.6698ZM9.21023 10.3305C9.97515 10.7223 10.8162 11.019 11.6447 11.2347C11.2563 12.5599 11.0355 14.0552 11.0043 15.6155H7.16234C7.24634 13.6751 7.96415 11.8213 9.21023 10.3305ZM20.1179 10.5028C19.7285 9.41715 19.1489 8.2833 18.338 7.4698C19.8057 7.87296 21.1577 8.65103 22.2495 9.74007C21.5821 10.0622 20.8167 10.3282 20.1179 10.5028ZM16.3848 10.9957V7.19196C17.324 7.376 18.2125 8.2305 18.9197 9.64504C19.0815 9.96857 19.2292 10.313 19.3626 10.675C18.3822 10.8717 17.3765 10.9747 16.3848 10.9957ZM15.6155 10.9957C14.6153 10.9745 13.6069 10.8698 12.6377 10.675C12.7711 10.3129 12.9188 9.96853 13.0806 9.64504C13.7878 8.2305 14.6763 7.37596 15.6155 7.19196V10.9957ZM15.6155 11.7651V15.6155H11.7737C11.8048 14.1105 12.0188 12.6739 12.3943 11.4094C13.3905 11.6156 14.4806 11.742 15.6155 11.7651ZM15.6155 16.3848V20.2352C14.5436 20.257 13.4398 20.3737 12.3943 20.5909C12.0188 19.3264 11.8048 17.8898 11.7737 16.3848H15.6155ZM15.6155 21.0046V24.8083C14.6763 24.6243 13.7878 23.7698 13.0806 22.3553C12.9188 22.0317 12.7711 21.6873 12.6377 21.3253C13.5696 21.1372 14.5836 21.0265 15.6155 21.0046ZM16.3848 21.0046C17.4143 21.0264 18.4242 21.1363 19.3626 21.3253C19.2292 21.6873 19.0815 22.0317 18.9197 22.3553C18.2125 23.7698 17.324 24.6243 16.3848 24.8083V21.0046ZM16.3848 20.2352V16.3848H20.2267C20.1955 17.8898 19.9815 19.3264 19.606 20.5909C18.6156 20.3852 17.5182 20.2583 16.3848 20.2352ZM16.3848 15.6155V11.7651C17.5324 11.7417 18.6183 11.6135 19.606 11.4094C19.9815 12.6738 20.1955 14.1105 20.2267 15.6155H16.3848ZM11.8824 10.5028C11.1612 10.3207 10.4185 10.0628 9.7508 9.74007C10.8426 8.65103 12.1946 7.87296 13.6624 7.4698C12.8502 8.2845 12.2709 9.4198 11.8824 10.5028ZM11.8824 21.4975C12.2707 22.5802 12.8502 23.7158 13.6624 24.5305C12.1946 24.1273 10.8426 23.3492 9.7508 22.2602C10.4195 21.9368 11.1626 21.6801 11.8824 21.4975ZM20.1179 21.4975C20.8071 21.6697 21.5824 21.9374 22.2495 22.2602C21.1577 23.3492 19.8057 24.1273 18.338 24.5305C19.1501 23.7157 19.7296 22.5802 20.1179 21.4975ZM20.996 15.6155C20.9648 14.0552 20.744 12.5599 20.3557 11.2347C21.1984 11.0158 22.0423 10.7139 22.7901 10.3305C24.0361 11.8213 24.754 13.6752 24.838 15.6156H20.996V15.6155Z" fill="#333333"/>
</g>
<defs>
<clipPath id="clip0_511_34247">
<rect width="20" height="20" fill="white" transform="translate(6 6)"/>
</clipPath>
</defs>
</svg>
